<svg width="26" height="23" viewBox="0 0 26 23" fill="none" xmlns="http://www.w3.org/2000/svg">
<path d="M19.1573 8.45843L13.9809 0.509005C13.7564 0.181818 13.39 -0.0120698 13 4.82018e-05C12.61 -0.0120698 12.2436 0.193937 12.0191 0.521123L6.84273 8.45843H1.18182C0.531818 8.45843 0 9.00374 0 9.67023C0 9.77929 0.0118182 9.88835 0.0472727 9.99741L3.04909 21.2308C3.33273 22.273 4.25455 23 5.31818 23H20.6818C21.7455 23 22.6673 22.273 22.9627 21.2308L25.9645 9.99741L26 9.67023C26 9.00374 25.4682 8.45843 24.8182 8.45843H19.1573ZM9.45455 8.45843L13 3.1265L16.5455 8.45843H9.45455ZM13 18.1528C11.7 18.1528 10.6364 17.0622 10.6364 15.7292C10.6364 14.3963 11.7 13.3056 13 13.3056C14.3 13.3056 15.3636 14.3963 15.3636 15.7292C15.3636 17.0622 14.3 18.1528 13 18.1528Z" fill="black"/>
</svg>
