<?xml version="1.0" encoding="utf-8"?>
<!-- Generator: Adobe Illustrator 24.3.0, SVG Export Plug-In . SVG Version: 6.00 Build 0)  -->
<svg version="1.1" id="Layer_1" xmlns="http://www.w3.org/2000/svg" xmlns:xlink="http://www.w3.org/1999/xlink" x="0px" y="0px"
	 viewBox="0 0 1000 360.24" style="enable-background:new 0 0 1000 360.24;" xml:space="preserve">
<style type="text/css">
	.st0{fill:url(#SVGID_1_);}
	.st1{fill:url(#SVGID_2_);}
	.st2{fill:url(#SVGID_3_);}
	.st3{fill:url(#SVGID_4_);}
	.st4{fill:url(#SVGID_5_);}
	.st5{fill:url(#SVGID_6_);}
	.st6{fill:url(#SVGID_7_);}
</style>
<g id="Artwork_1_1_">
	<g>
		<g>
			<linearGradient id="SVGID_1_" gradientUnits="userSpaceOnUse" x1="402.8694" y1="497.4723" x2="402.8694" y2="231.9094">
				<stop  offset="0" style="stop-color:#24003E"/>
				<stop  offset="0.2054" style="stop-color:#420953"/>
				<stop  offset="0.5663" style="stop-color:#721873"/>
				<stop  offset="0.8428" style="stop-color:#8F2287"/>
				<stop  offset="1" style="stop-color:#9A258F"/>
			</linearGradient>
			<polygon class="st0" points="377.09,137.2 342.68,137.2 342.68,309.15 463.06,309.15 463.06,274.74 377.09,274.74 			"/>
			<linearGradient id="SVGID_2_" gradientUnits="userSpaceOnUse" x1="557.6522" y1="497.4723" x2="557.6522" y2="231.9094">
				<stop  offset="0" style="stop-color:#24003E"/>
				<stop  offset="0.2054" style="stop-color:#420953"/>
				<stop  offset="0.5663" style="stop-color:#721873"/>
				<stop  offset="0.8428" style="stop-color:#8F2287"/>
				<stop  offset="1" style="stop-color:#9A258F"/>
			</linearGradient>
			<path class="st1" d="M634.45,179.05c-3.84-6.55-8.47-12.55-13.91-17.98c-5.44-5.44-11.43-10.07-17.99-13.91
				c-6.56-3.84-13.63-6.82-21.22-8.94c-7.59-2.11-15.47-3.18-23.62-3.18c-8.15,0-16.01,1.06-23.56,3.18
				c-7.55,2.12-14.63,5.1-21.22,8.94c-6.6,3.84-12.61,8.47-18.05,13.91c-5.44,5.43-10.09,11.43-13.97,17.98
				c-3.88,6.56-6.88,13.63-8.99,21.23c-2.12,7.6-3.18,15.47-3.18,23.62c0,8.15,1.06,16.01,3.18,23.56
				c2.12,7.56,5.11,14.63,8.99,21.23c3.88,6.59,8.53,12.61,13.97,18.05c5.44,5.44,11.45,10.09,18.05,13.97
				c6.6,3.88,13.67,6.88,21.22,8.99c7.55,2.12,15.41,3.18,23.56,3.18c8.15,0,16.03-1.06,23.62-3.18c7.59-2.11,14.67-5.11,21.22-8.99
				c6.55-3.88,12.55-8.53,17.99-13.97c5.44-5.44,10.07-11.45,13.91-18.05c3.84-6.6,6.81-13.67,8.93-21.23
				c2.12-7.55,3.18-15.41,3.18-23.56c0-8.15-1.06-16.02-3.18-23.62C641.26,192.68,638.29,185.61,634.45,179.05z M608.07,245.06
				c-2.88,6.6-6.77,12.37-11.69,17.33c-4.92,4.96-10.71,8.87-17.39,11.75c-6.68,2.88-13.77,4.32-21.28,4.32
				c-7.6,0-14.71-1.44-21.34-4.32c-6.64-2.88-12.43-6.79-17.39-11.75c-4.96-4.95-8.87-10.73-11.75-17.33
				c-2.88-6.59-4.32-13.65-4.32-21.16c0-7.51,1.44-14.61,4.32-21.29c2.88-6.67,6.79-12.47,11.75-17.38
				c4.96-4.91,10.75-8.81,17.39-11.69c6.63-2.88,13.75-4.32,21.34-4.32c7.51,0,14.61,1.44,21.28,4.32
				c6.67,2.88,12.47,6.78,17.39,11.69c4.92,4.92,8.81,10.71,11.69,17.38c2.88,6.68,4.32,13.77,4.32,21.29
				C612.39,231.41,610.95,238.47,608.07,245.06z"/>
			<linearGradient id="SVGID_3_" gradientUnits="userSpaceOnUse" x1="735.7659" y1="497.4723" x2="735.7659" y2="231.9094">
				<stop  offset="0" style="stop-color:#24003E"/>
				<stop  offset="0.2054" style="stop-color:#420953"/>
				<stop  offset="0.5663" style="stop-color:#721873"/>
				<stop  offset="0.8428" style="stop-color:#8F2287"/>
				<stop  offset="1" style="stop-color:#9A258F"/>
			</linearGradient>
			<path class="st2" d="M712.92,185.47c4.96-4.91,10.73-8.81,17.33-11.69c6.6-2.88,13.65-4.32,21.17-4.32
				c7.51,0,14.67,1.5,21.46,4.5c6.79,3,12.79,7.14,17.99,12.41l17.99-29.98c-7.99-6.79-16.91-12.01-26.74-15.65
				c-9.83-3.64-20.06-5.46-30.69-5.46c-8.15,0-16.01,1.06-23.56,3.18c-7.55,2.12-14.61,5.1-21.17,8.94
				c-6.56,3.84-12.55,8.45-17.98,13.85c-5.44,5.4-10.07,11.39-13.91,17.99c-3.84,6.6-6.82,13.65-8.93,21.16
				c-2.12,7.52-3.18,15.35-3.18,23.5c0,8.15,1.06,16.03,3.18,23.62c2.12,7.6,5.1,14.69,8.93,21.29c3.84,6.59,8.47,12.59,13.91,17.99
				c5.44,5.39,11.43,10.03,17.98,13.91c6.55,3.88,13.61,6.88,21.17,8.99c7.55,2.12,15.41,3.18,23.56,3.18
				c10.63,0,20.86-1.82,30.69-5.45c9.83-3.64,18.75-8.85,26.74-15.65V223.9h-33.21v48.92c-3.68,1.84-7.55,3.28-11.63,4.32
				c-4.08,1.04-8.27,1.56-12.59,1.56c-7.52,0-14.57-1.44-21.17-4.32c-6.59-2.88-12.37-6.79-17.33-11.75
				c-4.96-4.95-8.87-10.75-11.75-17.38c-2.88-6.64-4.32-13.75-4.32-21.34c0-7.51,1.44-14.57,4.32-21.16
				C704.05,196.14,707.97,190.38,712.92,185.47z"/>
			<linearGradient id="SVGID_4_" gradientUnits="userSpaceOnUse" x1="917.2787" y1="497.4723" x2="917.2787" y2="231.9094">
				<stop  offset="0" style="stop-color:#24003E"/>
				<stop  offset="0.2054" style="stop-color:#420953"/>
				<stop  offset="0.5663" style="stop-color:#721873"/>
				<stop  offset="0.8428" style="stop-color:#8F2287"/>
				<stop  offset="1" style="stop-color:#9A258F"/>
			</linearGradient>
			<path class="st3" d="M993.52,187.76c-4.32-10.02-10.29-18.89-17.76-26.35c-7.47-7.47-16.33-13.43-26.35-17.75
				c-19.96-8.6-44.48-8.6-64.43,0c-10.02,4.32-18.85,10.28-26.26,17.74c-7.42,7.46-13.37,16.33-17.69,26.36
				c-4.3,9.98-6.48,20.82-6.48,32.21v89.18h32.51v-46.2h74.47l11.34-29.45h-85.84c-0.01-0.6-0.01-1.21-0.02-1.8
				c-0.16-11.78-0.33-23.96,6.64-35.53c9.32-15.46,27.4-24.18,47.21-22.86c19.24,1.33,35.51,12.23,42.45,28.45
				c2.44,5.69,3.68,11.81,3.68,18.21v89.18H1000v-89.18C1000,208.57,997.82,197.73,993.52,187.76z"/>
		</g>
		<g>
			<linearGradient id="SVGID_5_" gradientUnits="userSpaceOnUse" x1="138.325" y1="497.4723" x2="138.325" y2="231.9094">
				<stop  offset="0" style="stop-color:#24003E"/>
				<stop  offset="0.2054" style="stop-color:#420953"/>
				<stop  offset="0.5663" style="stop-color:#721873"/>
				<stop  offset="0.8428" style="stop-color:#8F2287"/>
				<stop  offset="1" style="stop-color:#9A258F"/>
			</linearGradient>
			<path class="st4" d="M138.33,137.05c-0.4,0-0.79,0.03-1.19,0.03c-46.47,0.64-84.14,38.31-84.78,84.78
				c-0.01,0.4-0.03,0.79-0.03,1.19c0,28.82,14.27,54.36,36.09,69.97c16.46,11.77,37.2,17.92,59.41,15.52
				c39.12-4.23,70.81-35.26,75.79-74.29c1.82-14.29,0.09-28.01-4.4-40.41c-0.12,0-0.24,0.02-0.36,0.02
				c-18.14,0-33.79-10.67-41.13-26.04c-2.83-5.93-4.47-12.55-4.47-19.55c0-1.25,0.09-2.47,0.19-3.69
				C162.71,139.76,150.83,137.05,138.33,137.05z M190.52,228.97c-2.58,23.58-21.24,42.82-44.74,46.09
				c-14.22,1.98-27.47-1.81-37.92-9.28c-14.8-10.57-23.91-28.6-21.72-48.63c2.58-23.58,21.24-42.82,44.74-46.09
				c14.22-1.98,27.48,1.81,37.92,9.28C183.6,190.92,192.71,208.94,190.52,228.97z"/>
			<linearGradient id="SVGID_6_" gradientUnits="userSpaceOnUse" x1="193.9569" y1="497.4723" x2="193.9569" y2="231.9094">
				<stop  offset="0" style="stop-color:#24003E"/>
				<stop  offset="0.2054" style="stop-color:#420953"/>
				<stop  offset="0.5663" style="stop-color:#721873"/>
				<stop  offset="0.8428" style="stop-color:#8F2287"/>
				<stop  offset="1" style="stop-color:#9A258F"/>
			</linearGradient>
			<path class="st5" d="M275.72,218.38c-0.03-0.95-0.07-1.89-0.12-2.83c-0.02-0.3-0.04-0.59-0.06-0.89
				c-0.06-0.98-0.12-1.95-0.2-2.92c-0.02-0.22-0.04-0.43-0.06-0.65c-0.09-1.08-0.2-2.16-0.32-3.23c-0.01-0.09-0.02-0.19-0.03-0.28
				c-1.7-15.02-5.83-29.31-11.97-42.47l-8.05,10.97l-0.01-0.04c-5.43,7.04-12.84,12.47-21.43,15.39c3.32,9.95,5.14,20.58,5.14,31.64
				c0,55.3-44.99,100.29-100.29,100.29c-2.58,0-5.14-0.13-7.67-0.33l0.07,0.03c-0.04,3.32-0.74,6.5-1.81,9.49
				c-4.57,14.96-16.4,25.08-16.8,25.42c5.3,1.03,10.71,1.78,16.21,2.2c0.96,0.07,1.91,0.13,2.88,0.18c0.03,0,0.05,0,0.08,0.01
				c2.34,0.13,4.69,0.19,7.06,0.19c75.93,0,137.48-61.55,137.48-137.48c0,0,0,0,0,0c0-1.25-0.02-2.5-0.05-3.74
				C275.75,219.01,275.73,218.69,275.72,218.38z"/>
			<linearGradient id="SVGID_7_" gradientUnits="userSpaceOnUse" x1="164.1129" y1="497.4723" x2="164.1129" y2="231.9094">
				<stop  offset="0" style="stop-color:#24003E"/>
				<stop  offset="0.2054" style="stop-color:#420953"/>
				<stop  offset="0.5663" style="stop-color:#721873"/>
				<stop  offset="0.8428" style="stop-color:#8F2287"/>
				<stop  offset="1" style="stop-color:#9A258F"/>
			</linearGradient>
			<path class="st6" d="M327.57,3.11c1.69-1.27-0.29-2.6-1.56-2.8c-6.78-1.06-14.15,0.71-20.42,3.25
				c-4.24,1.72-8.15,4.11-11.76,6.91c-6.7,5.17-12.46,11.55-19.88,15.76c-6.38,3.62-13.54,5.31-20.83,5.64
				c-38.22,1.74-58.2,30.84-65.59,41.17c-5.44,7.61-13.85,12.07-22.44,15.18c6.88-6.8,11.64-15.39,13.63-24.87
				c1.51-6.68,1.25-12.85,0.85-16.47c-0.12-1.13-1.57-1.55-2.27-0.65c-2.82,3.62-7.57,8.02-8.47,8.84
				c-7.22,6.11-19.98,12.74-42.61,16.93C73.25,81.84,27.67,124.37,9.39,175.32c-4.04,10.9-6.73,22.45-7.88,34.46
				c-0.06,0.68-0.12,1.36-0.18,2.05c-0.02,0.24-0.04,0.48-0.06,0.71c-0.28,3.5-0.43,7.01-0.43,10.52c0,0.65,0.02,1.28,0.05,1.88
				c0.06,4.75,0.37,9.44,0.9,14.07c0.84,7.7,2.38,15.34,4.65,23.03c0.23,0.77,0.49,1.53,0.73,2.29c0.04,0.11,0.07,0.23,0.11,0.34
				c0.39,1.22,0.79,2.45,1.22,3.66c0.49,1.41,1,2.81,1.54,4.19c0.14,0.35,0.27,0.71,0.41,1.06c0.15,0.38,0.31,0.75,0.46,1.13
				c0.4,0.98,0.8,1.95,1.22,2.92c0.04,0.1,0.08,0.19,0.13,0.29c2.05,4.71,4.37,9.27,6.9,13.68c-8.17-2.97-14.31-2.25-18.11-1.06
				c-1.35,0.43-1.42,2.31-0.09,2.83c0.78,0.3,1.65,0.73,2.6,1.31c5.34,3.31,12.99,11.82,20.22,33.41
				c3.65,10.9,10.22,20.82,20.36,26.61c15.22,8.69,37.67,6.74,52.05-2.94c9.56-6.43,15.88-16.96,18.16-28.17
				c0.11-0.56,0.22-1.12,0.31-1.69c0.12-0.76-0.37-1.48-1.11-1.67c-2.54-0.66-5.03-1.45-7.5-2.3c-1.52-0.52-3.06-1.04-4.55-1.63
				c-7.62-3.02-14.78-6.94-21.36-11.64c-23.49-16.81-39.44-43.48-41.76-73.91c-0.19-2.54-0.33-5.1-0.33-7.68
				c0-55.3,44.99-100.29,100.29-100.29c2.59,0,5.15,0.13,7.68,0.32c10.86,0.83,21.24,3.37,30.86,7.39
				c4.04,1.69,7.94,3.65,11.69,5.83c0.01,0.01,0.02,0.02,0.01,0.04c-1.46,3.7-2.29,7.71-2.29,11.92c0,1.21,0.08,2.4,0.21,3.57
				c0.11,1.02,0.26,2.03,0.47,3.03c2.66,12.88,12.95,22.98,25.92,25.39c1.94,0.36,3.93,0.57,5.97,0.57c3.39,0,6.65-0.52,9.72-1.48
				c8.05-2.52,14.68-8.14,18.71-15.33c0.06-0.08,3.44-4.86,9.24-11.21c6.04-6.62,14.69-14.94,24.94-21.41
				c0.2-0.13,0.34-0.3,0.52-0.44c1.52-1.06,3.51-2.46,5.01-3.51c1.14-0.8,1.14-2.48,0.03-3.31c-2.04-1.52-4.23-2.72-6.1-3.6
				c-0.09-0.04-0.15-0.11-0.23-0.15c-0.27-0.12-0.57-0.23-0.85-0.35c-2.02-0.89-3.43-1.33-3.43-1.3c-5.25-1.8-11.63-3.17-19.45-2.66
				c7.47-3.22,13.7-7.1,18.86-11.45c28.63-24.15,25.51-62.4,32.04-77.96c3.67-8.75,8.9-14.74,13.82-18.79
				c0.1-0.08,0.14-0.18,0.23-0.26C323.68,6.09,325.94,4.35,327.57,3.11z"/>
		</g>
	</g>
</g>
</svg>
